{"glyphs":{"0":{"ha":1042,"x_min":0,"x_max":955,"o":"m 694 260 l 694 1042 l 260 1042 l 260 260 l 694 260 m 87 0 l 87 87 l 0 87 l 0 1215 l 87 1215 l 87 1302 l 868 1302 l 868 1215 l 955 1215 l 955 87 l 868 87 l 868 0 l 87 0 z "},"1":{"ha":608,"x_min":0,"x_max":521,"o":"m 260 0 l 260 1042 l 0 1042 l 0 1302 l 434 1302 l 434 1215 l 521 1215 l 521 0 l 260 0 z "},"2":{"ha":1042,"x_min":0,"x_max":955,"o":"m 0 0 l 0 694 l 87 694 l 87 781 l 694 781 l 694 1042 l 0 1042 l 0 1302 l 868 1302 l 868 1215 l 955 1215 l 955 608 l 868 608 l 868 521 l 260 521 l 260 260 l 955 260 l 955 0 l 0 0 z "},"3":{"ha":1042,"x_min":0,"x_max":955,"o":"m 0 0 l 0 260 l 694 260 l 694 521 l 260 521 l 260 781 l 694 781 l 694 1042 l 0 1042 l 0 1302 l 868 1302 l 868 1215 l 955 1215 l 955 694 l 868 694 l 868 608 l 955 608 l 955 87 l 868 87 l 868 0 l 0 0 z "},"4":{"ha":1042,"x_min":0,"x_max":955,"o":"m 694 0 l 694 521 l 87 521 l 87 608 l 0 608 l 0 1302 l 260 1302 l 260 781 l 694 781 l 694 1302 l 955 1302 l 955 0 l 694 0 z "},"5":{"ha":1042,"x_min":0,"x_max":955,"o":"m 87 0 l 87 87 l 0 87 l 0 347 l 260 347 l 260 260 l 694 260 l 694 521 l 87 521 l 87 608 l 0 608 l 0 1302 l 955 1302 l 955 1042 l 260 1042 l 260 781 l 868 781 l 868 694 l 955 694 l 955 87 l 868 87 l 868 0 l 87 0 z "},"6":{"ha":1042,"x_min":0,"x_max":955,"o":"m 694 260 l 694 521 l 260 521 l 260 260 l 694 260 m 87 0 l 87 87 l 0 87 l 0 1215 l 87 1215 l 87 1302 l 955 1302 l 955 1042 l 260 1042 l 260 781 l 868 781 l 868 694 l 955 694 l 955 87 l 868 87 l 868 0 l 87 0 z "},"7":{"ha":1042,"x_min":0,"x_max":955,"o":"m 347 0 l 347 608 l 434 608 l 434 694 l 521 694 l 521 868 l 608 868 l 608 955 l 694 955 l 694 1042 l 0 1042 l 0 1302 l 955 1302 l 955 868 l 868 868 l 868 781 l 781 781 l 781 608 l 694 608 l 694 521 l 608 521 l 608 0 l 347 0 z "},"8":{"ha":1042,"x_min":0,"x_max":955,"o":"m 694 260 l 694 521 l 260 521 l 260 260 l 694 260 m 694 781 l 694 1042 l 260 1042 l 260 781 l 694 781 m 87 0 l 87 87 l 0 87 l 0 608 l 87 608 l 87 694 l 0 694 l 0 1215 l 87 1215 l 87 1302 l 868 1302 l 868 1215 l 955 1215 l 955 694 l 868 694 l 868 608 l 955 608 l 955 87 l 868 87 l 868 0 l 87 0 z "},"9":{"ha":1042,"x_min":0,"x_max":955,"o":"m 694 781 l 694 1042 l 260 1042 l 260 781 l 694 781 m 694 0 l 694 521 l 87 521 l 87 608 l 0 608 l 0 1215 l 87 1215 l 87 1302 l 868 1302 l 868 1215 l 955 1215 l 955 0 l 694 0 z "}," ":{"ha":434,"x_min":0,"x_max":0,"o":""},"!":{"ha":347,"x_min":0,"x_max":260,"o":"m 0 0 l 0 260 l 260 260 l 260 0 l 0 0 m 0 434 l 0 1302 l 260 1302 l 260 434 l 0 434 z "},"\"":{"ha":781,"x_min":0,"x_max":694,"o":"m 0 868 l 0 1302 l 260 1302 l 260 868 l 0 868 m 434 868 l 434 1302 l 694 1302 l 694 868 l 434 868 z "},"#":{"ha":1042,"x_min":0,"x_max":955,"o":"m 608 521 l 608 781 l 347 781 l 347 521 l 608 521 m 87 0 l 87 260 l 0 260 l 0 521 l 87 521 l 87 781 l 0 781 l 0 1042 l 87 1042 l 87 1302 l 347 1302 l 347 1042 l 608 1042 l 608 1302 l 868 1302 l 868 1042 l 955 1042 l 955 781 l 868 781 l 868 521 l 955 521 l 955 260 l 868 260 l 868 0 l 608 0 l 608 260 l 347 260 l 347 0 l 87 0 z "},"$":{"ha":1042,"x_min":0,"x_max":955,"o":"m 347 -174 l 347 0 l 87 0 l 87 87 l 0 87 l 0 347 l 260 347 l 260 260 l 694 260 l 694 521 l 87 521 l 87 608 l 0 608 l 0 1215 l 87 1215 l 87 1302 l 347 1302 l 347 1476 l 608 1476 l 608 1302 l 868 1302 l 868 1215 l 955 1215 l 955 955 l 694 955 l 694 1042 l 260 1042 l 260 781 l 868 781 l 868 694 l 955 694 l 955 87 l 868 87 l 868 0 l 608 0 l 608 -174 l 347 -174 z "},"&":{"ha":1128,"x_min":0,"x_max":1042,"o":"m 87 0 l 87 87 l 0 87 l 0 608 l 87 608 l 87 694 l 0 694 l 0 1215 l 87 1215 l 87 1302 l 868 1302 l 868 1215 l 955 1215 l 955 955 l 694 955 l 694 1042 l 260 1042 l 260 781 l 521 781 l 521 521 l 260 521 l 260 260 l 694 260 l 694 781 l 1042 781 l 1042 521 l 955 521 l 955 87 l 868 87 l 868 0 l 87 0 z "},"'":{"ha":347,"x_min":0,"x_max":260,"o":"m 0 868 l 0 1302 l 260 1302 l 260 868 l 0 868 z "},"(":{"ha":608,"x_min":0,"x_max":521,"o":"m 87 0 l 87 87 l 0 87 l 0 1215 l 87 1215 l 87 1302 l 521 1302 l 521 1042 l 260 1042 l 260 260 l 521 260 l 521 0 l 87 0 z "},")":{"ha":1042,"x_min":434,"x_max":955,"o":"m 434 0 l 434 260 l 694 260 l 694 1042 l 434 1042 l 434 1302 l 868 1302 l 868 1215 l 955 1215 l 955 87 l 868 87 l 868 0 l 434 0 z "},"*":{"ha":347,"x_min":0,"x_max":260,"o":"m 87 1042 l 87 1128 l 0 1128 l 0 1215 l 87 1215 l 87 1302 l 174 1302 l 174 1215 l 260 1215 l 260 1128 l 174 1128 l 174 1042 l 87 1042 z "},"+":{"ha":1042,"x_min":0,"x_max":955,"o":"m 347 174 l 347 521 l 0 521 l 0 781 l 347 781 l 347 1128 l 608 1128 l 608 781 l 955 781 l 955 521 l 608 521 l 608 174 l 347 174 z "},",":{"ha":347,"x_min":0,"x_max":260,"o":"m 87 -174 l 87 0 l 0 0 l 0 260 l 260 260 l 260 -87 l 174 -87 l 174 -174 l 87 -174 z "},"-":{"ha":1042,"x_min":0,"x_max":955,"o":"m 0 521 l 0 781 l 955 781 l 955 521 l 0 521 z "},".":{"ha":347,"x_min":0,"x_max":260,"o":"m 0 0 l 0 260 l 260 260 l 260 0 l 0 0 z "},"/":{"ha":1042,"x_min":0,"x_max":955,"o":"m 0 0 l 0 174 l 87 174 l 87 347 l 174 347 l 174 521 l 260 521 l 260 608 l 347 608 l 347 781 l 434 781 l 434 868 l 521 868 l 521 1042 l 608 1042 l 608 1215 l 694 1215 l 694 1302 l 955 1302 l 955 1128 l 868 1128 l 868 1042 l 781 1042 l 781 868 l 694 868 l 694 694 l 608 694 l 608 608 l 521 608 l 521 434 l 434 434 l 434 260 l 347 260 l 347 87 l 260 87 l 260 0 l 0 0 z "},":":{"ha":347,"x_min":0,"x_max":260,"o":"m 0 260 l 0 521 l 260 521 l 260 260 l 0 260 m 0 781 l 0 1042 l 260 1042 l 260 781 l 0 781 z "},";":{"ha":347,"x_min":0,"x_max":260,"o":"m 0 87 l 0 521 l 260 521 l 260 260 l 174 260 l 174 174 l 87 174 l 87 87 l 0 87 m 0 781 l 0 1042 l 260 1042 l 260 781 l 0 781 z "},"=":{"ha":1042,"x_min":0,"x_max":955,"o":"m 0 260 l 0 521 l 955 521 l 955 260 l 0 260 m 0 781 l 0 1042 l 955 1042 l 955 781 l 0 781 z "},"?":{"ha":1042,"x_min":0,"x_max":955,"o":"m 347 0 l 347 260 l 608 260 l 608 0 l 347 0 m 347 434 l 347 694 l 434 694 l 434 781 l 694 781 l 694 1042 l 260 1042 l 260 955 l 0 955 l 0 1215 l 87 1215 l 87 1302 l 868 1302 l 868 1215 l 955 1215 l 955 608 l 781 608 l 781 521 l 608 521 l 608 434 l 347 434 z "},"A":{"ha":1042,"x_min":0,"x_max":955,"o":"m 694 781 l 694 1042 l 260 1042 l 260 781 l 694 781 m 0 0 l 0 1215 l 87 1215 l 87 1302 l 868 1302 l 868 1215 l 955 1215 l 955 0 l 694 0 l 694 521 l 260 521 l 260 0 l 0 0 z "},"B":{"ha":1042,"x_min":0,"x_max":955,"o":"m 694 260 l 694 521 l 260 521 l 260 260 l 694 260 m 694 781 l 694 1042 l 260 1042 l 260 781 l 694 781 m 0 0 l 0 1302 l 868 1302 l 868 1215 l 955 1215 l 955 694 l 868 694 l 868 608 l 955 608 l 955 174 l 868 174 l 868 0 l 0 0 z "},"C":{"ha":1042,"x_min":0,"x_max":955,"o":"m 87 0 l 87 87 l 0 87 l 0 1215 l 87 1215 l 87 1302 l 868 1302 l 868 1215 l 955 1215 l 955 955 l 694 955 l 694 1042 l 260 1042 l 260 260 l 694 260 l 694 347 l 955 347 l 955 87 l 868 87 l 868 0 l 87 0 z "},"D":{"ha":1042,"x_min":0,"x_max":955,"o":"m 694 260 l 694 1042 l 260 1042 l 260 260 l 694 260 m 0 0 l 0 1302 l 868 1302 l 868 1215 l 955 1215 l 955 87 l 868 87 l 868 0 l 0 0 z "},"E":{"ha":1042,"x_min":0,"x_max":955,"o":"m 87 0 l 87 87 l 0 87 l 0 1215 l 87 1215 l 87 1302 l 955 1302 l 955 1042 l 260 1042 l 260 781 l 694 781 l 694 521 l 260 521 l 260 260 l 955 260 l 955 0 l 87 0 z "},"F":{"ha":1042,"x_min":0,"x_max":955,"o":"m 0 0 l 0 1215 l 87 1215 l 87 1302 l 955 1302 l 955 1042 l 260 1042 l 260 781 l 694 781 l 694 521 l 260 521 l 260 0 l 0 0 z "},"G":{"ha":1042,"x_min":0,"x_max":955,"o":"m 87 0 l 87 87 l 0 87 l 0 1215 l 87 1215 l 87 1302 l 868 1302 l 868 1215 l 955 1215 l 955 955 l 694 955 l 694 1042 l 260 1042 l 260 260 l 694 260 l 694 521 l 521 521 l 521 781 l 868 781 l 868 694 l 955 694 l 955 87 l 868 87 l 868 0 l 87 0 z "},"H":{"ha":1042,"x_min":0,"x_max":955,"o":"m 0 0 l 0 1302 l 260 1302 l 260 781 l 694 781 l 694 1302 l 955 1302 l 955 0 l 694 0 l 694 521 l 260 521 l 260 0 l 0 0 z "},"I":{"ha":347,"x_min":0,"x_max":260,"o":"m 0 0 l 0 1302 l 260 1302 l 260 0 l 0 0 z "},"J":{"ha":1042,"x_min":0,"x_max":955,"o":"m 87 0 l 87 87 l 0 87 l 0 521 l 260 521 l 260 260 l 694 260 l 694 1042 l 434 1042 l 434 1302 l 955 1302 l 955 87 l 868 87 l 868 0 l 87 0 z "},"K":{"ha":1042,"x_min":0,"x_max":955,"o":"m 0 0 l 0 1302 l 260 1302 l 260 781 l 694 781 l 694 1302 l 955 1302 l 955 694 l 868 694 l 868 608 l 955 608 l 955 0 l 694 0 l 694 521 l 260 521 l 260 0 l 0 0 z "},"L":{"ha":1042,"x_min":0,"x_max":955,"o":"m 87 0 l 87 87 l 0 87 l 0 1302 l 260 1302 l 260 260 l 955 260 l 955 0 l 87 0 z "},"M":{"ha":1215,"x_min":0,"x_max":1128,"o":"m 0 0 l 0 1302 l 260 1302 l 260 1215 l 347 1215 l 347 1042 l 434 1042 l 434 868 l 521 868 l 521 694 l 608 694 l 608 868 l 694 868 l 694 1042 l 781 1042 l 781 1215 l 868 1215 l 868 1302 l 1128 1302 l 1128 0 l 868 0 l 868 694 l 781 694 l 781 608 l 694 608 l 694 434 l 608 434 l 608 347 l 521 347 l 521 434 l 434 434 l 434 608 l 347 608 l 347 694 l 260 694 l 260 0 l 0 0 z "},"N":{"ha":1042,"x_min":0,"x_max":955,"o":"m 0 0 l 0 1302 l 260 1302 l 260 1215 l 347 1215 l 347 1042 l 434 1042 l 434 868 l 521 868 l 521 694 l 608 694 l 608 608 l 694 608 l 694 1302 l 955 1302 l 955 0 l 694 0 l 694 87 l 608 87 l 608 260 l 521 260 l 521 434 l 434 434 l 434 608 l 347 608 l 347 694 l 260 694 l 260 0 l 0 0 z "},"O":{"ha":1042,"x_min":0,"x_max":955,"o":"m 694 260 l 694 1042 l 260 1042 l 260 260 l 694 260 m 87 0 l 87 87 l 0 87 l 0 1215 l 87 1215 l 87 1302 l 868 1302 l 868 1215 l 955 1215 l 955 87 l 868 87 l 868 0 l 87 0 z "},"P":{"ha":1042,"x_min":0,"x_max":955,"o":"m 694 781 l 694 1042 l 260 1042 l 260 781 l 694 781 m 0 0 l 0 1302 l 868 1302 l 868 1215 l 955 1215 l 955 608 l 868 608 l 868 521 l 260 521 l 260 0 l 0 0 z "},"Q":{"ha":1042,"x_min":0,"x_max":955,"o":"m 694 260 l 694 1042 l 260 1042 l 260 260 l 347 260 l 347 434 l 521 434 l 521 347 l 608 347 l 608 260 l 694 260 m 434 -174 l 434 -87 l 347 -87 l 347 0 l 87 0 l 87 87 l 0 87 l 0 1215 l 87 1215 l 87 1302 l 868 1302 l 868 1215 l 955 1215 l 955 87 l 868 87 l 868 0 l 608 0 l 608 -174 l 434 -174 z "},"R":{"ha":1042,"x_min":0,"x_max":955,"o":"m 694 781 l 694 1042 l 260 1042 l 260 781 l 694 781 m 0 0 l 0 1302 l 868 1302 l 868 1215 l 955 1215 l 955 694 l 868 694 l 868 608 l 955 608 l 955 0 l 694 0 l 694 521 l 260 521 l 260 0 l 0 0 z "},"S":{"ha":1042,"x_min":0,"x_max":955,"o":"m 87 0 l 87 87 l 0 87 l 0 347 l 260 347 l 260 260 l 694 260 l 694 521 l 87 521 l 87 608 l 0 608 l 0 1215 l 87 1215 l 87 1302 l 868 1302 l 868 1215 l 955 1215 l 955 955 l 694 955 l 694 1042 l 260 1042 l 260 781 l 868 781 l 868 694 l 955 694 l 955 87 l 868 87 l 868 0 l 87 0 z "},"T":{"ha":1042,"x_min":0,"x_max":955,"o":"m 347 0 l 347 1042 l 0 1042 l 0 1302 l 955 1302 l 955 1042 l 608 1042 l 608 0 l 347 0 z "},"U":{"ha":1042,"x_min":0,"x_max":955,"o":"m 87 0 l 87 87 l 0 87 l 0 1302 l 260 1302 l 260 260 l 694 260 l 694 1302 l 955 1302 l 955 87 l 868 87 l 868 0 l 87 0 z "},"V":{"ha":1042,"x_min":0,"x_max":955,"o":"m 347 0 l 347 87 l 260 87 l 260 260 l 174 260 l 174 347 l 87 347 l 87 521 l 0 521 l 0 1302 l 260 1302 l 260 521 l 347 521 l 347 347 l 434 347 l 434 260 l 521 260 l 521 347 l 608 347 l 608 521 l 694 521 l 694 1302 l 955 1302 l 955 521 l 868 521 l 868 347 l 781 347 l 781 260 l 694 260 l 694 87 l 608 87 l 608 0 l 347 0 z "},"W":{"ha":1215,"x_min":0,"x_max":1128,"o":"m 0 0 l 0 1302 l 260 1302 l 260 608 l 347 608 l 347 694 l 434 694 l 434 868 l 521 868 l 521 955 l 608 955 l 608 868 l 694 868 l 694 694 l 781 694 l 781 608 l 868 608 l 868 1302 l 1128 1302 l 1128 0 l 868 0 l 868 87 l 781 87 l 781 260 l 694 260 l 694 434 l 608 434 l 608 608 l 521 608 l 521 434 l 434 434 l 434 260 l 347 260 l 347 87 l 260 87 l 260 0 l 0 0 z "},"X":{"ha":1042,"x_min":0,"x_max":955,"o":"m 0 0 l 0 87 l 87 87 l 87 260 l 174 260 l 174 434 l 260 434 l 260 608 l 347 608 l 347 694 l 260 694 l 260 868 l 174 868 l 174 1042 l 87 1042 l 87 1215 l 0 1215 l 0 1302 l 260 1302 l 260 1215 l 347 1215 l 347 1042 l 434 1042 l 434 868 l 521 868 l 521 1042 l 608 1042 l 608 1215 l 694 1215 l 694 1302 l 955 1302 l 955 1215 l 868 1215 l 868 1042 l 781 1042 l 781 868 l 694 868 l 694 694 l 608 694 l 608 608 l 694 608 l 694 434 l 781 434 l 781 260 l 868 260 l 868 87 l 955 87 l 955 0 l 694 0 l 694 87 l 608 87 l 608 260 l 521 260 l 521 434 l 434 434 l 434 260 l 347 260 l 347 87 l 260 87 l 260 0 l 0 0 z "},"Y":{"ha":1042,"x_min":0,"x_max":955,"o":"m 87 0 l 87 87 l 0 87 l 0 347 l 260 347 l 260 260 l 694 260 l 694 521 l 87 521 l 87 608 l 0 608 l 0 1302 l 260 1302 l 260 781 l 694 781 l 694 1302 l 955 1302 l 955 87 l 868 87 l 868 0 l 87 0 z "},"Z":{"ha":1042,"x_min":0,"x_max":955,"o":"m 0 0 l 0 87 l 87 87 l 87 260 l 174 260 l 174 434 l 260 434 l 260 608 l 347 608 l 347 694 l 434 694 l 434 868 l 521 868 l 521 1042 l 0 1042 l 0 1302 l 955 1302 l 955 1215 l 868 1215 l 868 1042 l 781 1042 l 781 868 l 694 868 l 694 694 l 608 694 l 608 608 l 521 608 l 521 434 l 434 434 l 434 260 l 955 260 l 955 0 l 0 0 z "},"[":{"ha":608,"x_min":0,"x_max":521,"o":"m 0 0 l 0 1302 l 521 1302 l 521 1042 l 260 1042 l 260 260 l 521 260 l 521 0 l 0 0 z "},"\\":{"ha":1042,"x_min":0,"x_max":955,"o":"m 694 0 l 694 87 l 608 87 l 608 260 l 521 260 l 521 434 l 434 434 l 434 608 l 347 608 l 347 694 l 260 694 l 260 868 l 174 868 l 174 1042 l 87 1042 l 87 1128 l 0 1128 l 0 1302 l 260 1302 l 260 1215 l 347 1215 l 347 1042 l 434 1042 l 434 868 l 521 868 l 521 781 l 608 781 l 608 608 l 694 608 l 694 521 l 781 521 l 781 347 l 868 347 l 868 174 l 955 174 l 955 0 l 694 0 z "},"]":{"ha":608,"x_min":0,"x_max":521,"o":"m 0 0 l 0 260 l 260 260 l 260 1042 l 0 1042 l 0 1302 l 521 1302 l 521 0 l 0 0 z "},"_":{"ha":1042,"x_min":0,"x_max":955,"o":"m 0 0 l 0 260 l 955 260 l 955 0 l 0 0 z "},"{":{"ha":694,"x_min":0,"x_max":608,"o":"m 174 0 l 174 87 l 87 87 l 87 521 l 0 521 l 0 781 l 87 781 l 87 1215 l 174 1215 l 174 1302 l 608 1302 l 608 1042 l 347 1042 l 347 694 l 260 694 l 260 608 l 347 608 l 347 260 l 608 260 l 608 0 l 174 0 z "},"|":{"ha":347,"x_min":0,"x_max":260,"o":"m 0 0 l 0 1302 l 260 1302 l 260 0 l 0 0 z "},"}":{"ha":694,"x_min":0,"x_max":608,"o":"m 0 0 l 0 260 l 260 260 l 260 608 l 347 608 l 347 694 l 260 694 l 260 1042 l 0 1042 l 0 1302 l 434 1302 l 434 1215 l 521 1215 l 521 781 l 608 781 l 608 521 l 521 521 l 521 87 l 434 87 l 434 0 l 0 0 z "},"~":{"ha":1042,"x_min":0,"x_max":955,"o":"m 0 521 l 0 868 l 87 868 l 87 955 l 347 955 l 347 868 l 608 868 l 608 781 l 694 781 l 694 955 l 955 955 l 955 608 l 868 608 l 868 521 l 608 521 l 608 608 l 347 608 l 347 694 l 260 694 l 260 521 l 0 521 z "},"‘":{"ha":347,"x_min":0,"x_max":260,"o":"m 0 868 l 0 1302 l 87 1302 l 87 1215 l 174 1215 l 174 1128 l 260 1128 l 260 868 l 0 868 z "},"’":{"ha":347,"x_min":0,"x_max":260,"o":"m 174 868 l 174 955 l 87 955 l 87 1042 l 0 1042 l 0 1302 l 260 1302 l 260 868 l 174 868 z "},"“":{"ha":781,"x_min":0,"x_max":694,"o":"m 0 868 l 0 1302 l 87 1302 l 87 1215 l 174 1215 l 174 1128 l 260 1128 l 260 868 l 0 868 m 434 868 l 434 1302 l 521 1302 l 521 1215 l 608 1215 l 608 1128 l 694 1128 l 694 868 l 434 868 z "},"”":{"ha":781,"x_min":0,"x_max":694,"o":"m 174 868 l 174 955 l 87 955 l 87 1042 l 0 1042 l 0 1302 l 260 1302 l 260 868 l 174 868 m 608 868 l 608 955 l 521 955 l 521 1042 l 434 1042 l 434 1302 l 694 1302 l 694 868 l 608 868 z "},"a":{"ha":1042,"x_min":0,"x_max":955,"o":"m 694 781 l 694 1042 l 260 1042 l 260 781 l 694 781 m 0 0 l 0 1215 l 87 1215 l 87 1302 l 868 1302 l 868 1215 l 955 1215 l 955 0 l 694 0 l 694 521 l 260 521 l 260 0 l 0 0 z "},"b":{"ha":1042,"x_min":0,"x_max":955,"o":"m 694 260 l 694 521 l 260 521 l 260 260 l 694 260 m 694 781 l 694 1042 l 260 1042 l 260 781 l 694 781 m 0 0 l 0 1302 l 868 1302 l 868 1215 l 955 1215 l 955 694 l 868 694 l 868 608 l 955 608 l 955 174 l 868 174 l 868 0 l 0 0 z "},"c":{"ha":1042,"x_min":0,"x_max":955,"o":"m 87 0 l 87 87 l 0 87 l 0 1215 l 87 1215 l 87 1302 l 868 1302 l 868 1215 l 955 1215 l 955 955 l 694 955 l 694 1042 l 260 1042 l 260 260 l 694 260 l 694 347 l 955 347 l 955 87 l 868 87 l 868 0 l 87 0 z "},"d":{"ha":1042,"x_min":0,"x_max":955,"o":"m 694 260 l 694 1042 l 260 1042 l 260 260 l 694 260 m 0 0 l 0 1302 l 868 1302 l 868 1215 l 955 1215 l 955 87 l 868 87 l 868 0 l 0 0 z "},"e":{"ha":1042,"x_min":0,"x_max":955,"o":"m 87 0 l 87 87 l 0 87 l 0 1215 l 87 1215 l 87 1302 l 955 1302 l 955 1042 l 260 1042 l 260 781 l 694 781 l 694 521 l 260 521 l 260 260 l 955 260 l 955 0 l 87 0 z "},"f":{"ha":1042,"x_min":0,"x_max":955,"o":"m 0 0 l 0 1215 l 87 1215 l 87 1302 l 955 1302 l 955 1042 l 260 1042 l 260 781 l 694 781 l 694 521 l 260 521 l 260 0 l 0 0 z "},"g":{"ha":1042,"x_min":0,"x_max":955,"o":"m 87 0 l 87 87 l 0 87 l 0 1215 l 87 1215 l 87 1302 l 868 1302 l 868 1215 l 955 1215 l 955 955 l 694 955 l 694 1042 l 260 1042 l 260 260 l 694 260 l 694 521 l 521 521 l 521 781 l 868 781 l 868 694 l 955 694 l 955 87 l 868 87 l 868 0 l 87 0 z "},"h":{"ha":1042,"x_min":0,"x_max":955,"o":"m 0 0 l 0 1302 l 260 1302 l 260 781 l 694 781 l 694 1302 l 955 1302 l 955 0 l 694 0 l 694 521 l 260 521 l 260 0 l 0 0 z "},"i":{"ha":347,"x_min":0,"x_max":260,"o":"m 0 0 l 0 1302 l 260 1302 l 260 0 l 0 0 z "},"j":{"ha":1042,"x_min":0,"x_max":955,"o":"m 87 0 l 87 87 l 0 87 l 0 521 l 260 521 l 260 260 l 694 260 l 694 1042 l 434 1042 l 434 1302 l 955 1302 l 955 87 l 868 87 l 868 0 l 87 0 z "},"k":{"ha":1042,"x_min":0,"x_max":955,"o":"m 0 0 l 0 1302 l 260 1302 l 260 781 l 694 781 l 694 1302 l 955 1302 l 955 694 l 868 694 l 868 608 l 955 608 l 955 0 l 694 0 l 694 521 l 260 521 l 260 0 l 0 0 z "},"l":{"ha":1042,"x_min":0,"x_max":955,"o":"m 87 0 l 87 87 l 0 87 l 0 1302 l 260 1302 l 260 260 l 955 260 l 955 0 l 87 0 z "},"m":{"ha":1215,"x_min":0,"x_max":1128,"o":"m 0 0 l 0 1302 l 260 1302 l 260 1215 l 347 1215 l 347 1042 l 434 1042 l 434 868 l 521 868 l 521 694 l 608 694 l 608 868 l 694 868 l 694 1042 l 781 1042 l 781 1215 l 868 1215 l 868 1302 l 1128 1302 l 1128 0 l 868 0 l 868 694 l 781 694 l 781 608 l 694 608 l 694 434 l 608 434 l 608 347 l 521 347 l 521 434 l 434 434 l 434 608 l 347 608 l 347 694 l 260 694 l 260 0 l 0 0 z "},"n":{"ha":1042,"x_min":0,"x_max":955,"o":"m 0 0 l 0 1302 l 260 1302 l 260 1215 l 347 1215 l 347 1042 l 434 1042 l 434 868 l 521 868 l 521 694 l 608 694 l 608 608 l 694 608 l 694 1302 l 955 1302 l 955 0 l 694 0 l 694 87 l 608 87 l 608 260 l 521 260 l 521 434 l 434 434 l 434 608 l 347 608 l 347 694 l 260 694 l 260 0 l 0 0 z "},"o":{"ha":1042,"x_min":0,"x_max":955,"o":"m 694 260 l 694 1042 l 260 1042 l 260 260 l 694 260 m 87 0 l 87 87 l 0 87 l 0 1215 l 87 1215 l 87 1302 l 868 1302 l 868 1215 l 955 1215 l 955 87 l 868 87 l 868 0 l 87 0 z "},"p":{"ha":1042,"x_min":0,"x_max":955,"o":"m 694 781 l 694 1042 l 260 1042 l 260 781 l 694 781 m 0 0 l 0 1302 l 868 1302 l 868 1215 l 955 1215 l 955 608 l 868 608 l 868 521 l 260 521 l 260 0 l 0 0 z "},"q":{"ha":1042,"x_min":0,"x_max":955,"o":"m 694 260 l 694 1042 l 260 1042 l 260 260 l 347 260 l 347 434 l 521 434 l 521 347 l 608 347 l 608 260 l 694 260 m 434 -174 l 434 -87 l 347 -87 l 347 0 l 87 0 l 87 87 l 0 87 l 0 1215 l 87 1215 l 87 1302 l 868 1302 l 868 1215 l 955 1215 l 955 87 l 868 87 l 868 0 l 608 0 l 608 -174 l 434 -174 z "},"r":{"ha":1042,"x_min":0,"x_max":955,"o":"m 694 781 l 694 1042 l 260 1042 l 260 781 l 694 781 m 0 0 l 0 1302 l 868 1302 l 868 1215 l 955 1215 l 955 694 l 868 694 l 868 608 l 955 608 l 955 0 l 694 0 l 694 521 l 260 521 l 260 0 l 0 0 z "},"s":{"ha":1042,"x_min":0,"x_max":955,"o":"m 87 0 l 87 87 l 0 87 l 0 347 l 260 347 l 260 260 l 694 260 l 694 521 l 87 521 l 87 608 l 0 608 l 0 1215 l 87 1215 l 87 1302 l 868 1302 l 868 1215 l 955 1215 l 955 955 l 694 955 l 694 1042 l 260 1042 l 260 781 l 868 781 l 868 694 l 955 694 l 955 87 l 868 87 l 868 0 l 87 0 z "},"t":{"ha":1042,"x_min":0,"x_max":955,"o":"m 347 0 l 347 1042 l 0 1042 l 0 1302 l 955 1302 l 955 1042 l 608 1042 l 608 0 l 347 0 z "},"u":{"ha":1042,"x_min":0,"x_max":955,"o":"m 87 0 l 87 87 l 0 87 l 0 1302 l 260 1302 l 260 260 l 694 260 l 694 1302 l 955 1302 l 955 87 l 868 87 l 868 0 l 87 0 z "},"v":{"ha":1042,"x_min":0,"x_max":955,"o":"m 347 0 l 347 87 l 260 87 l 260 260 l 174 260 l 174 347 l 87 347 l 87 521 l 0 521 l 0 1302 l 260 1302 l 260 521 l 347 521 l 347 347 l 434 347 l 434 260 l 521 260 l 521 347 l 608 347 l 608 521 l 694 521 l 694 1302 l 955 1302 l 955 521 l 868 521 l 868 347 l 781 347 l 781 260 l 694 260 l 694 87 l 608 87 l 608 0 l 347 0 z "},"w":{"ha":1215,"x_min":0,"x_max":1128,"o":"m 0 0 l 0 1302 l 260 1302 l 260 608 l 347 608 l 347 694 l 434 694 l 434 868 l 521 868 l 521 955 l 608 955 l 608 868 l 694 868 l 694 694 l 781 694 l 781 608 l 868 608 l 868 1302 l 1128 1302 l 1128 0 l 868 0 l 868 87 l 781 87 l 781 260 l 694 260 l 694 434 l 608 434 l 608 608 l 521 608 l 521 434 l 434 434 l 434 260 l 347 260 l 347 87 l 260 87 l 260 0 l 0 0 z "},"x":{"ha":1042,"x_min":0,"x_max":955,"o":"m 0 0 l 0 87 l 87 87 l 87 260 l 174 260 l 174 434 l 260 434 l 260 608 l 347 608 l 347 694 l 260 694 l 260 868 l 174 868 l 174 1042 l 87 1042 l 87 1215 l 0 1215 l 0 1302 l 260 1302 l 260 1215 l 347 1215 l 347 1042 l 434 1042 l 434 868 l 521 868 l 521 1042 l 608 1042 l 608 1215 l 694 1215 l 694 1302 l 955 1302 l 955 1215 l 868 1215 l 868 1042 l 781 1042 l 781 868 l 694 868 l 694 694 l 608 694 l 608 608 l 694 608 l 694 434 l 781 434 l 781 260 l 868 260 l 868 87 l 955 87 l 955 0 l 694 0 l 694 87 l 608 87 l 608 260 l 521 260 l 521 434 l 434 434 l 434 260 l 347 260 l 347 87 l 260 87 l 260 0 l 0 0 z "},"y":{"ha":1042,"x_min":0,"x_max":955,"o":"m 87 0 l 87 87 l 0 87 l 0 347 l 260 347 l 260 260 l 694 260 l 694 521 l 87 521 l 87 608 l 0 608 l 0 1302 l 260 1302 l 260 781 l 694 781 l 694 1302 l 955 1302 l 955 87 l 868 87 l 868 0 l 87 0 z "},"z":{"ha":1042,"x_min":0,"x_max":955,"o":"m 0 0 l 0 87 l 87 87 l 87 260 l 174 260 l 174 434 l 260 434 l 260 608 l 347 608 l 347 694 l 434 694 l 434 868 l 521 868 l 521 1042 l 0 1042 l 0 1302 l 955 1302 l 955 1215 l 868 1215 l 868 1042 l 781 1042 l 781 868 l 694 868 l 694 694 l 608 694 l 608 608 l 521 608 l 521 434 l 434 434 l 434 260 l 955 260 l 955 0 l 0 0 z "}}}
